<?xml version="1.0" encoding="UTF-8"?>
<!DOCTYPE svg PUBLIC "-//W3C//DTD SVG 1.1//EN" "http://www.w3.org/Graphics/SVG/1.1/DTD/svg11.dtd">
<svg xmlns="http://www.w3.org/2000/svg" version="1.1" width="800px" height="600px" style="shape-rendering:geometricPrecision; text-rendering:geometricPrecision; image-rendering:optimizeQuality; fill-rule:evenodd; clip-rule:evenodd" xmlns:xlink="http://www.w3.org/1999/xlink">
<g><path style="opacity:1" fill="#fef8f4" d="M -0.5,-0.5 C 266.167,-0.5 532.833,-0.5 799.5,-0.5C 799.5,199.5 799.5,399.5 799.5,599.5C 532.833,599.5 266.167,599.5 -0.5,599.5C -0.5,399.5 -0.5,199.5 -0.5,-0.5 Z"/></g>
<g><path style="opacity:1" fill="#c2a8c4" d="M 424.5,135.5 C 421.143,138.337 418.976,142.003 418,146.5C 412.704,151.629 406.537,155.296 399.5,157.5C 388.827,154.945 381.661,148.612 378,138.5C 376.961,137.29 375.794,136.29 374.5,135.5C 366.27,124.074 368.937,115.908 382.5,111C 396.149,108.436 409.482,109.436 422.5,114C 431.093,120.401 431.76,127.567 424.5,135.5 Z"/></g>
<g><path style="opacity:1" fill="#d4bfd4" d="M 374.5,135.5 C 375.794,136.29 376.961,137.29 378,138.5C 381.661,148.612 388.827,154.945 399.5,157.5C 406.537,155.296 412.704,151.629 418,146.5C 418.976,142.003 421.143,138.337 424.5,135.5C 431.12,153.409 426.12,166.909 409.5,176C 413.5,177.333 417.5,178.667 421.5,180C 433.715,191.215 444.882,203.382 455,216.5C 456.167,223.333 453.333,226.167 446.5,225C 439.069,214.734 430.735,205.234 421.5,196.5C 418.304,200.098 414.304,202.098 409.5,202.5C 402.802,199.88 396.135,199.88 389.5,202.5C 384.639,201.216 379.972,199.716 375.5,198C 367.454,206.11 360.121,214.777 353.5,224C 346.295,226.803 343.128,224.303 344,216.5C 354.452,203.048 365.952,190.548 378.5,179C 382.249,178.292 385.916,177.292 389.5,176C 372.88,166.909 367.88,153.409 374.5,135.5 Z"/></g>
<g><path style="opacity:1" fill="#e8b8bb" d="M 332.5,202.5 C 331.206,203.29 330.039,204.29 329,205.5C 325.304,214.696 318.804,221.029 309.5,224.5C 300.224,221.058 293.724,214.724 290,205.5C 288.961,204.29 287.794,203.29 286.5,202.5C 278.632,193.022 280.632,186.188 292.5,182C 303.497,180.037 314.497,180.037 325.5,182C 338.094,185.643 340.427,192.476 332.5,202.5 Z"/></g>
<g><path style="opacity:1" fill="#b5c9d8" d="M 512.5,202.5 C 509.035,205.406 506.535,209.073 505,213.5C 500.9,218.789 495.733,222.455 489.5,224.5C 480.228,221.062 473.728,214.729 470,205.5C 468.961,204.29 467.794,203.29 466.5,202.5C 458.62,193.041 460.62,186.208 472.5,182C 483.497,180.037 494.497,180.037 505.5,182C 518.094,185.643 520.427,192.476 512.5,202.5 Z"/></g>
<g><path style="opacity:1" fill="#f5e7d5" d="M 409.5,202.5 C 418.415,209.114 420.915,217.781 417,228.5C 415.334,230.996 413.5,233.329 411.5,235.5C 397.827,242.309 387.661,238.976 381,225.5C 378.285,215.625 381.118,207.958 389.5,202.5C 396.135,199.88 402.802,199.88 409.5,202.5 Z"/></g>
<g><path style="opacity:1" fill="#f5d5d8" d="M 286.5,202.5 C 287.794,203.29 288.961,204.29 290,205.5C 293.724,214.724 300.224,221.058 309.5,224.5C 318.804,221.029 325.304,214.696 329,205.5C 330.039,204.29 331.206,203.29 332.5,202.5C 341.897,221.076 337.564,235.576 319.5,246C 322.276,247.037 325.11,247.87 328,248.5C 346.554,243.695 365.22,239.362 384,235.5C 389.116,235.939 391.116,238.605 390,243.5C 389.5,245.333 388.333,246.5 386.5,247C 376.472,249.105 366.472,251.272 356.5,253.5C 348.786,253.295 341.119,253.795 333.5,255C 324.448,257.6 321.781,263.1 325.5,271.5C 313.891,275.976 302.558,275.476 291.5,270C 282.167,263 282.167,256 291.5,249C 293.957,247.438 296.624,246.438 299.5,246C 281.337,235.676 277.004,221.176 286.5,202.5 Z"/></g>
<g><path style="opacity:1" fill="#fef8f4" d="M 393.5,203.5 C 411.344,202.213 418.178,210.213 414,227.5C 409.037,234.714 402.203,237.214 393.5,235C 384.752,230.455 381.585,223.288 384,213.5C 386.022,208.98 389.189,205.647 393.5,203.5 Z"/></g>
<g><path style="opacity:1" fill="#c8d9e3" d="M 466.5,202.5 C 467.794,203.29 468.961,204.29 470,205.5C 473.728,214.729 480.228,221.062 489.5,224.5C 495.733,222.455 500.9,218.789 505,213.5C 506.535,209.073 509.035,205.406 512.5,202.5C 520.514,217.189 518.514,230.355 506.5,242C 504.259,243.522 501.926,244.855 499.5,246C 507.243,247.344 512.243,251.678 514.5,259C 512.817,267.04 507.817,271.707 499.5,273C 490.621,275.37 481.954,274.87 473.5,271.5C 476.65,266.418 475.983,261.918 471.5,258C 467.479,255.66 463.146,254.326 458.5,254C 452.175,253.5 445.842,253.334 439.5,253.5C 430.424,250.781 421.09,248.614 411.5,247C 407.542,243.092 407.542,239.259 411.5,235.5C 431.324,239.039 450.991,243.372 470.5,248.5C 473.49,247.674 476.49,246.841 479.5,246C 465.698,239.568 459.865,228.734 462,213.5C 463.027,209.574 464.527,205.907 466.5,202.5 Z"/></g>
<g><path style="opacity:1" fill="#faefe4" d="M 396.5,211.5 C 406.034,211.244 409.201,215.578 406,224.5C 401.667,228.5 397.333,228.5 393,224.5C 390.325,219.011 391.492,214.678 396.5,211.5 Z"/></g>
<g><path style="opacity:1" fill="#e8ceb9" d="M 356.5,253.5 C 363.065,253.749 368.899,256.083 374,260.5C 375.837,265.839 374.67,270.506 370.5,274.5C 366.877,279.539 362.877,284.373 358.5,289C 355.625,290.789 352.625,292.289 349.5,293.5C 346.721,292.611 344.055,291.444 341.5,290C 336.459,284.707 331.793,279.207 327.5,273.5C 327.167,272.5 326.5,271.833 325.5,271.5C 321.781,263.1 324.448,257.6 333.5,255C 341.119,253.795 348.786,253.295 356.5,253.5 Z"/></g>
<g><path style="opacity:1" fill="#d4c0b3" d="M 439.5,253.5 C 445.842,253.334 452.175,253.5 458.5,254C 463.146,254.326 467.479,255.66 471.5,258C 475.983,261.918 476.65,266.418 473.5,271.5C 472.5,271.833 471.833,272.5 471.5,273.5C 467.304,278.688 462.971,283.855 458.5,289C 455.779,291.027 452.779,292.527 449.5,293.5C 446.716,292.608 444.05,291.442 441.5,290C 436.459,284.707 431.793,279.207 427.5,273.5C 420.958,264.724 422.958,258.557 433.5,255C 435.586,254.685 437.586,254.185 439.5,253.5 Z"/></g>
<g><path style="opacity:1" fill="#f5e2d1" d="M 327.5,273.5 C 331.793,279.207 336.459,284.707 341.5,290C 344.055,291.444 346.721,292.611 349.5,293.5C 352.625,292.289 355.625,290.789 358.5,289C 362.877,284.373 366.877,279.539 370.5,274.5C 376.902,284.269 377.069,294.269 371,304.5C 368.079,308.092 364.579,310.925 360.5,313C 362.365,314.301 364.365,314.635 366.5,314C 376.107,308.058 385.44,301.725 394.5,295C 395.793,294.51 397.127,294.343 398.5,294.5C 395.656,298.441 395.989,302.107 399.5,305.5C 391.059,311.228 382.392,316.728 373.5,322C 373.013,327.476 370.346,331.476 365.5,334C 355.6,338.137 345.6,338.47 335.5,335C 329.21,332.708 326.043,328.208 326,321.5C 316.523,313.534 308.189,304.534 301,294.5C 297.44,287.143 299.607,283.977 307.5,285C 315.055,295.561 323.722,305.228 333.5,314C 335.289,314.52 336.956,314.187 338.5,313C 326.878,306.589 322.045,296.756 324,283.5C 325.467,280.242 326.633,276.908 327.5,273.5 Z"/></g>
<g><path style="opacity:1" fill="#e6d4c8" d="M 427.5,273.5 C 431.793,279.207 436.459,284.707 441.5,290C 444.05,291.442 446.716,292.608 449.5,293.5C 452.779,292.527 455.779,291.027 458.5,289C 462.971,283.855 467.304,278.688 471.5,273.5C 476.93,283.888 476.764,294.222 471,304.5C 468.079,308.092 464.579,310.925 460.5,313C 462.044,314.187 463.711,314.52 465.5,314C 475.278,305.228 483.945,295.561 491.5,285C 499.393,283.977 501.56,287.143 498,294.5C 490.759,304.298 482.592,313.298 473.5,321.5C 473.221,327.231 470.554,331.397 465.5,334C 455.613,338.142 445.613,338.475 435.5,335C 429.754,332.754 426.42,328.588 425.5,322.5C 416.776,316.813 408.11,311.146 399.5,305.5C 395.989,302.107 395.656,298.441 398.5,294.5C 401.32,294.248 403.986,294.748 406.5,296C 414.818,302.493 423.485,308.493 432.5,314C 434.635,314.635 436.635,314.301 438.5,313C 426.878,306.589 422.045,296.756 424,283.5C 425.467,280.242 426.633,276.908 427.5,273.5 Z"/></g>
<g><path style="opacity:1" fill="#e8b9bc" d="M 282.5,434.5 C 288.868,434.17 295.202,434.504 301.5,435.5C 299.433,436.134 297.6,437.134 296,438.5C 295.501,443.823 295.334,449.156 295.5,454.5C 302.5,454.5 309.5,454.5 316.5,454.5C 316.666,449.489 316.499,444.489 316,439.5C 314.255,438.044 312.422,436.711 310.5,435.5C 316.833,434.167 323.167,434.167 329.5,435.5C 327.433,436.134 325.6,437.134 324,438.5C 323.333,450.833 323.333,463.167 324,475.5C 325.78,476.594 327.614,477.594 329.5,478.5C 323.167,479.833 316.833,479.833 310.5,478.5C 312.567,477.866 314.4,476.866 316,475.5C 316.499,469.509 316.666,463.509 316.5,457.5C 309.5,457.5 302.5,457.5 295.5,457.5C 295.334,463.509 295.501,469.509 296,475.5C 297.78,476.594 299.614,477.594 301.5,478.5C 295.167,479.833 288.833,479.833 282.5,478.5C 284.567,477.866 286.4,476.866 288,475.5C 288.667,463.167 288.667,450.833 288,438.5C 286.559,437.74 285.059,437.074 283.5,436.5C 282.702,436.043 282.369,435.376 282.5,434.5 Z"/></g>
<g><path style="opacity:1" fill="#e9bbbe" d="M 338.5,434.5 C 350.167,434.5 361.833,434.5 373.5,434.5C 373.5,438.167 373.5,441.833 373.5,445.5C 372.325,445.719 371.325,445.386 370.5,444.5C 369.408,441.906 367.741,439.739 365.5,438C 360.845,437.501 356.179,437.334 351.5,437.5C 351.5,443.167 351.5,448.833 351.5,454.5C 354.518,454.665 357.518,454.498 360.5,454C 362.451,452.266 363.451,450.099 363.5,447.5C 364.5,447.5 365.5,447.5 366.5,447.5C 366.5,453.5 366.5,459.5 366.5,465.5C 365.5,465.5 364.5,465.5 363.5,465.5C 363.683,463.064 363.016,460.897 361.5,459C 358.312,457.684 354.978,457.184 351.5,457.5C 351.334,463.176 351.501,468.843 352,474.5C 352.5,475 353,475.5 353.5,476C 358.5,476.667 363.5,476.667 368.5,476C 370.545,473.414 372.211,470.58 373.5,467.5C 374.325,466.614 375.325,466.281 376.5,466.5C 376.533,470.869 376.2,475.202 375.5,479.5C 363.149,479.832 350.815,479.499 338.5,478.5C 340.386,477.594 342.22,476.594 344,475.5C 344.667,463.167 344.667,450.833 344,438.5C 342.301,437.594 340.467,437.261 338.5,437.5C 338.5,436.5 338.5,435.5 338.5,434.5 Z"/></g>
<g><path style="opacity:1" fill="#e8babc" d="M 383.5,434.5 C 392.506,434.334 401.506,434.5 410.5,435C 417.049,437.266 419.549,441.766 418,448.5C 416.497,453.172 413.33,455.839 408.5,456.5C 412.029,463.688 416.696,470.188 422.5,476C 424.221,476.739 425.887,477.573 427.5,478.5C 423.541,479.66 419.541,479.827 415.5,479C 411.456,473.079 407.289,467.245 403,461.5C 401.211,459.771 399.044,459.104 396.5,459.5C 396.334,464.844 396.501,470.177 397,475.5C 398.6,476.866 400.433,477.866 402.5,478.5C 396.167,479.833 389.833,479.833 383.5,478.5C 385.567,477.866 387.4,476.866 389,475.5C 389.667,463.167 389.667,450.833 389,438.5C 386.689,437.603 384.856,436.27 383.5,434.5 Z"/></g>
<g><path style="opacity:1" fill="#cadae3" d="M 445.5,433.5 C 450.966,433.014 456.132,434.014 461,436.5C 462.3,435.293 463.8,434.626 465.5,434.5C 465.5,439.833 465.5,445.167 465.5,450.5C 464.5,450.5 463.5,450.5 462.5,450.5C 461.444,438.92 455.444,434.753 444.5,438C 437.398,444.307 434.898,452.14 437,461.5C 439.65,475.574 447.483,479.74 460.5,474C 461.956,472.255 463.289,470.422 464.5,468.5C 465.5,467.167 466.5,467.167 467.5,468.5C 462.822,478.172 455.156,482.006 444.5,480C 436.565,477.732 431.732,472.565 430,464.5C 426.739,449.687 431.906,439.353 445.5,433.5 Z"/></g>
<g><path style="opacity:1" fill="#fef8f4" d="M 396.5,437.5 C 407.155,435.657 411.655,439.99 410,450.5C 406.948,455.472 402.448,457.472 396.5,456.5C 396.5,450.167 396.5,443.833 396.5,437.5 Z"/></g>
<g><path style="opacity:1" fill="#c9dae3" d="M 554.5,438.5 C 556.5,438.5 558.5,438.5 560.5,438.5C 560.5,441.833 560.5,445.167 560.5,448.5C 563.5,448.5 566.5,448.5 569.5,448.5C 569.5,449.5 569.5,450.5 569.5,451.5C 566.5,451.5 563.5,451.5 560.5,451.5C 560.334,459.174 560.5,466.841 561,474.5C 563.908,476.025 567.074,477.025 570.5,477.5C 566.118,480.674 561.451,481.174 556.5,479C 555.809,477.933 555.309,476.766 555,475.5C 554.5,467.507 554.334,459.507 554.5,451.5C 552.5,451.5 550.5,451.5 548.5,451.5C 548.5,450.5 548.5,449.5 548.5,448.5C 550.5,448.5 552.5,448.5 554.5,448.5C 554.5,445.167 554.5,441.833 554.5,438.5 Z"/></g>
<g><path style="opacity:1" fill="#cadae3" d="M 471.5,431.5 C 475.5,431.5 479.5,431.5 483.5,431.5C 483.17,438.532 483.503,445.532 484.5,452.5C 490.078,446.342 495.911,446.008 502,451.5C 503.273,459.731 503.94,468.064 504,476.5C 505.205,477.071 506.372,477.738 507.5,478.5C 502.5,479.833 497.5,479.833 492.5,478.5C 494.193,477.772 495.693,476.772 497,475.5C 497.667,468.833 497.667,462.167 497,455.5C 492.844,450.243 488.511,450.243 484,455.5C 483.333,462.167 483.333,468.833 484,475.5C 485.307,476.772 486.807,477.772 488.5,478.5C 483.5,479.833 478.5,479.833 473.5,478.5C 474.628,477.738 475.795,477.071 477,476.5C 477.667,462.833 477.667,449.167 477,435.5C 475.301,434.594 473.467,434.261 471.5,434.5C 471.5,433.5 471.5,432.5 471.5,431.5 Z"/></g>
<g><path style="opacity:1" fill="#cbdae4" d="M 522.5,448.5 C 526.182,448.335 529.848,448.501 533.5,449C 535.286,449.785 536.786,450.951 538,452.5C 539.27,460.397 539.937,468.397 540,476.5C 545.802,478.271 545.469,479.605 539,480.5C 536.201,480.368 534.201,479.035 533,476.5C 527.627,481.157 522.127,481.491 516.5,477.5C 513.721,470.81 515.721,466.31 522.5,464C 525.871,462.932 529.204,461.765 532.5,460.5C 534.555,452.723 531.721,449.723 524,451.5C 524.937,457.08 522.77,459.246 517.5,458C 516.446,456.612 516.28,455.112 517,453.5C 518.73,451.598 520.563,449.931 522.5,448.5 Z"/></g>
<g><path style="opacity:1" fill="#fcf7f4" d="M 529.5,463.5 C 530.833,463.5 532.167,463.5 533.5,463.5C 533.665,466.85 533.498,470.183 533,473.5C 530.019,477.626 526.519,478.293 522.5,475.5C 521.073,472.467 521.406,469.634 523.5,467C 525.727,466.059 527.727,464.892 529.5,463.5 Z"/></g>
</svg>
